#!OML:ASF H:\Terrain\Patient Classification 1\Walking\liu\liu.ASF
:FULLY-SPECIFIED
:DEGREES
217
root 8.8053 16.7148 -3.16801 6.49466 -1.90956 -4.92481
lowerback -5.36176 1.41422 0.638058
upperback -0.0399612 1.76284 2.7683
thorax 2.89719 0.869349 2.63311
lowerneck -20.1595 -6.47844 -13.6285
upperneck 20.0232 -8.41406 14.5163
head 11.0565 -3.25566 6.27327
rclavicle -7.92654e-015 1.33186e-014
rhumerus -35.2428 18.1954 -85.0809
rradius 49.5599
rwrist -26.8673
rhand -31.5706 -29.3139
rfingers 7.12502
rthumb -4.8341 -59.2387
lclavicle -7.92654e-015 1.33186e-014
lhumerus -46.6917 -0.342667 85.4954
lradius 20.8727
lwrist -1.56004
lhand -9.99484 -23.1286
lfingers 7.12502
lthumb 15.9886 6.23162
rfemur 0.54102 4.25959 31.1119
rtibia 15.571
rfoot -21.1501 -1.17568
rtoes -13.7187
lfemur -39.8367 6.65327 -13.3607
ltibia 24.9138
lfoot -12.6058 11.5157
ltoes -12.4262
218
root 8.82529 16.7039 -3.0337 6.57293 -2.00106 -4.80457
lowerback -5.4961 1.45286 0.510257
upperback 0.00299629 1.81838 2.76633
thorax 3.01077 0.894334 2.71259
lowerneck -20.6276 -6.6624 -13.7372
upperneck 20.3752 -8.57167 14.3274
head 11.2976 -3.33714 6.20274
rclavicle -5.39203e-015 -3.16068e-014
rhumerus -35.3624 18.2131 -85.1218
rradius 49.9859
rwrist -27.4719
rhand -31.7606 -29.4306
rfingers 7.12502
rthumb -5.01762 -59.3512
lclavicle -5.39203e-015 -3.16068e-014
lhumerus -46.5089 0.106463 85.3886
lradius 20.6762
lwrist -2.26955
lhand -9.46605 -22.8552
lfingers 7.12502
lthumb 16.4978 6.4634
rfemur 1.39467 4.39523 30.8853
rtibia 14.8631
rfoot -21.0256 -0.952019
rtoes -12.4269
lfemur -39.7496 5.79208 -13.0947
ltibia 23.2815
lfoot -12.1513 11.6116
ltoes -14.2994
219
root 8.84207 16.6935 -2.8953 6.71728 -1.87796 -4.48366
lowerback -5.67234 1.3386 0.0178365
upperback -0.0135235 1.69534 2.76327
thorax 3.08361 0.825345 2.98211
lowerneck -20.7247 -6.51985 -13.7366
upperneck 20.558 -8.40823 14.4484
head 11.3636 -3.24505 6.28723
rclavicle 2.1593e-014 7.15625e-015
rhumerus -35.47 18.3885 -85.2374
rradius 50.3613
rwrist -27.8493
rhand -32.0945 -30.4332
rfingers 7.12502
rthumb -5.33996 -60.346
lclavicle 2.1593e-014 7.15625e-015
lhumerus -46.4033 0.938607 85.126
lradius 20.4638
lwrist -2.73149
lhand -9.43936 -23.49
lfingers 7.12502
lthumb 16.5235 5.82643
rfemur 2.23747 4.06905 30.4476
rtibia 13.9255
rfoot -20.7293 -0.811033
rtoes -13.0506
lfemur -39.8722 4.77403 -13.0404
ltibia 21.9622
lfoot -12.0292 11.2968
ltoes -13.5205
220
root 8.86873 16.6819 -2.74204 6.52636 -2.00503 -4.74432
lowerback -5.62966 1.40923 0.432477
upperback 0.0619494 1.76149 2.74536
thorax 3.14736 0.863707 2.73585
lowerneck -20.3966 -6.34416 -13.5752
upperneck 20.3596 -8.26845 14.596
head 11.2036 -3.16556 6.33459
rclavicle 1.49958e-014 1.49089e-014
rhumerus -35.5495 18.1885 -85.4514
rradius 50.3992
rwrist -27.698
rhand -31.699 -29.9351
rfingers 7.12502
rthumb -4.95814 -59.8571
lclavicle 1.49958e-014 1.49089e-014
lhumerus -46.6314 1.32977 84.8674
lradius 20.6642
lwrist -3.03917
lhand -9.29056 -23.6202
lfingers 7.12502
lthumb 16.6667 5.68426
rfemur 3.60214 3.88134 30.6099
rtibia 12.7489
rfoot -20.3441 -0.499809
rtoes -14.1689
lfemur -39.5502 3.50185 -12.0298
ltibia 20.9934
lfoot -12.3896 11.7172
ltoes -15.3682
221
root 8.89359 16.6748 -2.59387 6.54556 -2.15278 -4.68773
lowerback -5.6905 1.43985 0.459383
upperback -0.0336531 1.80338 2.68823
thorax 3.08352 0.886226 2.66466
lowerneck -20.0928 -6.22784 -13.5362
upperneck 20.1746 -8.15305 14.6764
head 11.0597 -3.11384 6.37231
rclavicle 1.76918e-014 1.98785e-015
rhumerus -36.0248 18.1279 -85.7418
rradius 50.6956
rwrist -27.593
rhand -31.3926 -29.8865
rfingers 7.12502
rthumb -4.66224 -59.8152
lclavicle 1.76918e-014 1.98785e-015
lhumerus -47.0621 1.55809 84.7013
lradius 20.9631
lwrist -3.7056
lhand -8.5361 -23.2261
lfingers 7.12502
lthumb 17.3929 6.0157
rfemur 4.75138 3.94058 30.4237
rtibia 11.5738
rfoot -20.0174 -0.225403
rtoes -13.833
lfemur -39.4838 2.40054 -11.5154
ltibia 20.1547
lfoot -12.6016 12.8043
ltoes -18.6703
222
root 8.91092 16.6528 -2.46198 6.74825 -2.16326 -5.11175
lowerback -5.8788 1.38719 0.805541
upperback -0.0720751 1.70147 2.8391
thorax 3.15946 0.839182 2.62326
lowerneck -20.3965 -6.12543 -13.4256
upperneck 20.3757 -8.02597 14.6708
head 11.1655 -3.03514 6.38103
rclavicle 6.07536e-015 8.15017e-015
rhumerus -36.4231 18.3808 -86.0502
rradius 51.3843
rwrist -27.8147
rhand -31.5821 -31.7892
rfingers 7.12502
rthumb -4.84522 -61.7138
lclavicle 6.07536e-015 8.15017e-015
lhumerus -47.0724 1.75593 84.7492
lradius 20.9583
lwrist -3.85547
lhand -8.37469 -23.4
lfingers 7.12502
lthumb 17.5483 5.82806
rfemur 5.79259 4.35642 30.9015
rtibia 10.2126
rfoot -19.5656 -0.708747
rtoes -15.716
lfemur -39.9488 1.69336 -10.628
ltibia 19.6221
lfoot -12.1914 13.4242
ltoes -17.4447
223
root 8.93074 16.6341 -2.32735 6.88923 -2.15753 -5.26165
lowerback -5.75328 1.34893 0.851259
upperback -0.281313 1.65334 2.94937
thorax 2.87288 0.817478 2.69926
lowerneck -20.3485 -6.0614 -13.3503
upperneck 20.5654 -7.94771 14.524
head 11.2016 -3.01101 6.33238
rclavicle 1.39149e-015 -1.21259e-014
rhumerus -37.0223 18.57 -86.2975
rradius 51.9295
rwrist -27.8765
rhand -31.5551 -33.3209
rfingers 7.12502
rthumb -4.81919 -63.246
lclavicle 1.39149e-015 -1.21259e-014
lhumerus -47.3382 0.875407 85.7956
lradius 20.9892
lwrist -2.05977
lhand -9.54509 -23.9706
lfingers 7.12502
lthumb 16.4217 5.35433
rfemur 6.89646 4.26188 30.9854
rtibia 8.82556
rfoot -19.0217 -0.793831
rtoes -17.9869
lfemur -40.3141 1.47627 -10.4168
ltibia 19.2265
lfoot -11.5233 12.7869
ltoes -14.1685
